<svg xmlns="http://www.w3.org/2000/svg" height="800" width="1200" viewBox="-21.44316 -10.49735 185.84072 62.9841"><defs><linearGradient gradientTransform="translate(35.3691 131.301) scale(.26458)" y2="147.4412" x2="135.2832" y1="161.281" x1="56.7941" gradientUnits="userSpaceOnUse" id="a"><stop offset="0" stop-color="#21409a"/><stop offset=".0753" stop-color="#20429b"/><stop offset=".146" stop-color="#1e489e"/><stop offset=".2149" stop-color="#1a53a5"/><stop offset=".2826" stop-color="#1560ae"/><stop offset=".3495" stop-color="#0d71ba"/><stop offset=".4158" stop-color="#0088ca"/><stop offset=".4803" stop-color="#00a4df"/><stop offset=".5301" stop-color="#00c0f3"/><stop offset=".5653" stop-color="#00b2e9"/><stop offset=".7258" stop-color="#017fc3"/><stop offset=".8566" stop-color="#165eac"/><stop offset=".9511" stop-color="#1e489e"/><stop offset="1" stop-color="#21409a"/></linearGradient></defs><path d="M104.2988 27.0933L100.33 31.75h-3.122l13.1497-15.4252h6.2177l1.6405 15.4252h-6.1913l-.5027-4.6567zm6.985-2.3283l-.5556-5.1858-4.4186 5.1858z" class="st0" fill="#21409a"/><path d="M47.2281 16.3248s3.3338-.1058 2.4871 2.7517l-.7408 2.3547c-.7409 1.9844-2.0373 2.249-3.9952 2.249 2.0108 0 3.0691.5556 2.6458 1.9844l-1.0319 3.2544c-.8996 2.3283-2.5664 2.8045-5.9266 2.8045H27.014l4.9741-15.4252h15.24zm-11.721 8.308l-1.2965 4.0216h5.1065c.5291 0 1.217-.291 1.4023-.8467l.6879-2.1696c.1587-.5027-.053-1.0054-.7938-1.0054zm1.905-5.9797l-1.1642 3.6513h5.08c.7673 0 1.2171-.291 1.4023-.8467l.582-1.7992c.1588-.5027-.0528-1.0054-.8201-1.0054zm43.2594 1.7199h10.8214c1.8256 0 2.9369 1.0847 2.4606 2.6193l-1.3229 4.101H81.7298l-.4233 1.323c-.1853.6614.1058 1.0318 1.0318 1.0318h9.525l-.7408 2.3284H76.7556c-2.196 0-2.2754-1.4023-1.6933-3.3073l1.6404-5.1065c.635-1.9844 1.9315-2.9898 3.9688-2.9898zm1.8256 4.392l.3704-1.1906c.1852-.5821.4762-.8732 1.217-.8732h2.7517c.5821 0 .8732.344.7673.635l-.4498 1.4288z" class="st1" clip-rule="evenodd" fill="#21409a" fill-rule="evenodd"/><path class="st0" fill="#21409a" d="M125.2273 31.75h-6.2177l3.6248-11.3771h6.2177zm5.2917-11.377h6.2177l-.5556 1.7197c.3439-.688 1.217-1.7198 2.9104-1.7198h3.8629l-1.0054 3.1221h-3.863c-1.3758 0-2.54.5556-2.9103 1.6669L133.059 31.75h-6.2177zM53.5516 31.75H47.334l4.9213-15.4252h6.2442z"/><path d="M58.8698 20.373h6.2177l-2.3283 7.276c-.1852.5556.2116 1.0054 1.0583 1.0054h1.905s1.3758.0529 1.7727-1.1377l2.3019-7.1438h6.2177L72.39 31.75H58.5787c-2.0637 0-2.8045-1.7727-2.1166-3.8365z" class="st1" clip-rule="evenodd" fill="#21409a" fill-rule="evenodd"/><path class="st2" d="M.5027 0s16.1131 1.561 17.489 4.8948C19.3675 8.2285 7.329 23.7067 7.329 23.7067S14.9754 12.012 12.9117 6.985C10.8479 1.9315.5027 0 .5027 0z" fill="#00c0f3"/><path class="st3" d="M69.421 160.6961c-.7673-1.852-4.498-3.3602-8.943-4.4979-.529 1.1113-1.217 2.3813-1.9843 3.6513 1.4023 1.1641 2.54 2.5135 3.1485 4.048 3.175 7.726-8.5195 25.5853-8.5195 25.5853s18.415-23.6802 16.2983-28.7867z" fill="url(#a)" transform="translate(-42.6716 -147.4934)"/><path class="st0" d="M12.409 7.5142C6.0325 6.297 0 5.715 0 5.715s6.932 1.323 12.5412 4.445c.1059-.979.0794-1.8785-.1322-2.6458z" fill="#21409a"/></svg>